<!DOCTYPE svg PUBLIC "-//W3C//DTD SVG 20010904//EN" "http://www.w3.org/TR/2001/REC-SVG-20010904/DTD/svg10.dtd">
<svg version="1.0" xmlns="http://www.w3.org/2000/svg" width="1200px" height="1200px" viewBox="0 0 12000 12000" preserveAspectRatio="xMidYMid meet">
<g id="layer101" fill="#000000" stroke="none">
 <path d="M5625 11119 c-1125 -80 -2225 -548 -3055 -1301 -998 -905 -1587 -2107 -1690 -3447 -13 -173 -13 -569 0 -742 84 -1089 483 -2077 1180 -2919 131 -159 489 -517 645 -646 858 -709 1841 -1104 2943 -1185 207 -15 694 -6 892 16 1029 114 1952 505 2750 1165 161 133 517 489 650 650 615 743 1007 1621 1139 2550 41 285 46 370 46 735 0 365 -5 450 -46 735 -54 379 -161 782 -306 1155 -122 313 -369 771 -567 1053 -901 1280 -2307 2074 -3864 2181 -176 13 -540 12 -717 0z"/>
 </g>
<g id="layer102" fill="#ffffff" stroke="none">
 <path d="M5810 10944 c-175 -9 -361 -27 -520 -50 -1296 -185 -2470 -885 -3261 -1946 -421 -565 -728 -1245 -868 -1923 -75 -363 -104 -646 -104 -1020 -1 -441 41 -789 144 -1204 131 -531 366 -1063 672 -1529 305 -461 725 -904 1179 -1243 1280 -955 2957 -1228 4483 -732 401 130 832 339 1193 576 462 305 904 724 1243 1179 386 517 675 1129 829 1753 102 414 143 760 143 1200 -1 562 -78 1039 -253 1565 -243 729 -641 1371 -1195 1925 -306 307 -608 542 -984 768 -146 87 -518 270 -676 332 -444 175 -897 284 -1375 329 -157 15 -530 27 -650 20z"/>
 </g>

</svg>