<svg xmlns="http://www.w3.org/2000/svg" width="1311.699" height="1254.121" viewBox="0 0 1311.699 1254.121">
  <g id="rain" transform="translate(-709.68 99.938)">
    <g id="Rectangle_3" data-name="Rectangle 3" transform="translate(1114.362 302.062) rotate(41)" fill="#fff" stroke="#707070" stroke-width="1">
      <rect width="269" height="30" rx="15" stroke="none"/>
      <rect x="0.5" y="0.5" width="268" height="29" rx="14.5" fill="none"/>
    </g>
    <g id="Rectangle_9" data-name="Rectangle 9" transform="translate(963.362 390.062) rotate(41)" fill="#fff" stroke="#707070" stroke-width="1">
      <rect width="269" height="30" rx="15" stroke="none"/>
      <rect x="0.5" y="0.5" width="268" height="29" rx="14.5" fill="none"/>
    </g>
    <g id="Rectangle_12" data-name="Rectangle 12" transform="translate(1818.362 807.062) rotate(41)" fill="#fff" stroke="#707070" stroke-width="1">
      <rect width="269" height="30" rx="15" stroke="none"/>
      <rect x="0.5" y="0.5" width="268" height="29" rx="14.5" fill="none"/>
    </g>
    <g id="Rectangle_24" data-name="Rectangle 24" transform="translate(1457.362 540.062) rotate(41)" fill="#fff" stroke="#707070" stroke-width="1">
      <rect width="269" height="30" rx="15" stroke="none"/>
      <rect x="0.5" y="0.5" width="268" height="29" rx="14.5" fill="none"/>
    </g>
    <g id="Rectangle_18" data-name="Rectangle 18" transform="translate(1569.362 457.062) rotate(41)" fill="#fff" stroke="#707070" stroke-width="1">
      <rect width="269" height="30" rx="15" stroke="none"/>
      <rect x="0.5" y="0.5" width="268" height="29" rx="14.5" fill="none"/>
    </g>
    <g id="Rectangle_25" data-name="Rectangle 25" transform="translate(1761.362 508.062) rotate(41)" fill="#fff" stroke="#707070" stroke-width="1">
      <rect width="269" height="30" rx="15" stroke="none"/>
      <rect x="0.5" y="0.5" width="268" height="29" rx="14.5" fill="none"/>
    </g>
    <g id="Rectangle_19" data-name="Rectangle 19" transform="translate(1225.362 608.062) rotate(41)" fill="#fff" stroke="#707070" stroke-width="1">
      <rect width="269" height="30" rx="15" stroke="none"/>
      <rect x="0.5" y="0.5" width="268" height="29" rx="14.5" fill="none"/>
    </g>
    <g id="Rectangle_20" data-name="Rectangle 20" transform="translate(729.362 -22.938) rotate(41)" fill="#fff" stroke="#707070" stroke-width="1">
      <rect width="269" height="30" rx="15" stroke="none"/>
      <rect x="0.5" y="0.5" width="268" height="29" rx="14.5" fill="none"/>
    </g>
    <g id="Rectangle_21" data-name="Rectangle 21" transform="translate(757.362 140.062) rotate(41)" fill="#fff" stroke="#707070" stroke-width="1">
      <rect width="269" height="30" rx="15" stroke="none"/>
      <rect x="0.5" y="0.5" width="268" height="29" rx="14.5" fill="none"/>
    </g>
    <g id="Rectangle_13" data-name="Rectangle 13" transform="translate(1471.362 722.062) rotate(41)" fill="#fff" stroke="#707070" stroke-width="1">
      <rect width="269" height="30" rx="15" stroke="none"/>
      <rect x="0.5" y="0.5" width="268" height="29" rx="14.5" fill="none"/>
    </g>
    <g id="Rectangle_22" data-name="Rectangle 22" transform="translate(1740.362 955.062) rotate(41)" fill="#fff" stroke="#707070" stroke-width="1">
      <rect width="269" height="30" rx="15" stroke="none"/>
      <rect x="0.5" y="0.5" width="268" height="29" rx="14.5" fill="none"/>
    </g>
    <g id="Rectangle_23" data-name="Rectangle 23" transform="translate(1740.362 955.062) rotate(41)" fill="#fff" stroke="#707070" stroke-width="1">
      <rect width="269" height="30" rx="15" stroke="none"/>
      <rect x="0.5" y="0.5" width="268" height="29" rx="14.5" fill="none"/>
    </g>
    <g id="Rectangle_14" data-name="Rectangle 14" transform="translate(1680.362 304.062) rotate(41)" fill="#fff" stroke="#707070" stroke-width="1">
      <rect width="269" height="30" rx="15" stroke="none"/>
      <rect x="0.5" y="0.5" width="268" height="29" rx="14.5" fill="none"/>
    </g>
    <g id="Rectangle_15" data-name="Rectangle 15" transform="translate(1680.362 161.062) rotate(41)" fill="#fff" stroke="#707070" stroke-width="1">
      <rect width="269" height="30" rx="15" stroke="none"/>
      <rect x="0.5" y="0.5" width="268" height="29" rx="14.5" fill="none"/>
    </g>
    <g id="Rectangle_16" data-name="Rectangle 16" transform="translate(1422.362 40.062) rotate(41)" fill="#fff" stroke="#707070" stroke-width="1">
      <rect width="269" height="30" rx="15" stroke="none"/>
      <rect x="0.5" y="0.5" width="268" height="29" rx="14.5" fill="none"/>
    </g>
    <g id="Rectangle_17" data-name="Rectangle 17" transform="translate(1680.362 11.062) rotate(41)" fill="#fff" stroke="#707070" stroke-width="1">
      <rect width="269" height="30" rx="15" stroke="none"/>
      <rect x="0.5" y="0.5" width="268" height="29" rx="14.5" fill="none"/>
    </g>
    <g id="Rectangle_27" data-name="Rectangle 27" transform="translate(1770.362 -79.938) rotate(41)" fill="#fff" stroke="#707070" stroke-width="1">
      <rect width="269" height="30" rx="15" stroke="none"/>
      <rect x="0.5" y="0.5" width="268" height="29" rx="14.5" fill="none"/>
    </g>
    <g id="Rectangle_10" data-name="Rectangle 10" transform="translate(1387.362 161.062) rotate(41)" fill="#fff" stroke="#707070" stroke-width="1">
      <rect width="269" height="30" rx="15" stroke="none"/>
      <rect x="0.5" y="0.5" width="268" height="29" rx="14.5" fill="none"/>
    </g>
    <g id="Rectangle_11" data-name="Rectangle 11" transform="translate(1164.362 -58.938) rotate(41)" fill="#fff" stroke="#707070" stroke-width="1">
      <rect width="269" height="30" rx="15" stroke="none"/>
      <rect x="0.5" y="0.5" width="268" height="29" rx="14.5" fill="none"/>
    </g>
    <g id="Rectangle_4" data-name="Rectangle 4" transform="translate(952.362 61.062) rotate(41)" fill="#fff" stroke="#707070" stroke-width="1">
      <rect width="269" height="30" rx="15" stroke="none"/>
      <rect x="0.5" y="0.5" width="268" height="29" rx="14.5" fill="none"/>
    </g>
    <g id="Rectangle_26" data-name="Rectangle 26" transform="translate(891.362 -99.938) rotate(41)" fill="#fff" stroke="#707070" stroke-width="1">
      <rect width="269" height="30" rx="15" stroke="none"/>
      <rect x="0.5" y="0.5" width="268" height="29" rx="14.5" fill="none"/>
    </g>
    <g id="Rectangle_5" data-name="Rectangle 5" transform="translate(1234.362 229.062) rotate(41)" fill="#fff" stroke="#707070" stroke-width="1">
      <rect width="269" height="30" rx="15" stroke="none"/>
      <rect x="0.5" y="0.5" width="268" height="29" rx="14.5" fill="none"/>
    </g>
  </g>
</svg>
